<?xml version="1.0" encoding="utf-8"?>
<!-- Generator: Adobe Illustrator 19.0.0, SVG Export Plug-In . SVG Version: 6.00 Build 0)  -->
<svg version="1.1" id="Layer_1" xmlns="http://www.w3.org/2000/svg" xmlns:xlink="http://www.w3.org/1999/xlink" x="0px" y="0px"
	 viewBox="0 0 1000 213" style="enable-background:new 0 0 1000 213;" xml:space="preserve">
<style type="text/css">
	.st0{fill:#448CBF;}
</style>
<g>
	<path class="st0" d="M79,0c4.6,1.2,9.3,2.2,13.8,3.8c45,16,61.1,69.8,32.5,108.3c-13.2,17.8-26.7,35.4-40.1,53
		c-9.9,12.9-22.4,12.6-32.1-0.5c-12.4-16.8-24.7-33.5-37.3-50.1c-7.6-10-13.1-20.8-15-33.3C0.7,80.7,0.3,80.4,0,80
		c0-7.3,0-14.7,0-22c1.7-1,1.3-3,1.7-4.4c5.1-20.7,17.4-35.9,36-46.1C44.1,3.9,51.4,2.9,58,0C65,0,72,0,79,0z M24.6,95
		c0,10.1,2.5,18.2,8.6,26.6c9.7,13.2,19.4,26.2,29.3,39.3c4.4,5.9,9.2,5.8,13.8-0.1c8.5-11.1,16.9-22.3,25.3-33.4
		c3.3-4.4,7-8.5,9.3-13.5c7.7-17,4.4-36.7-8.5-50c-13-13.5-32.1-17.7-49.1-11C35.6,59.8,24.6,75.9,24.6,95z M124.2,94.6
		c12.6-24.2,4.3-56.7-18.3-73.3C81.5,3.2,48.8,5.4,27.4,26.3C7.5,45.8,5,76.5,15.3,93.8c0.9-15.6,6.3-28.7,17.5-39
		C44.1,44.4,57.7,39.3,73,40.5C102.2,42.7,122.1,63.7,124.2,94.6z"/>
	<path class="st0" d="M1000,100c-1.9,3.7-4,4.4-8.2,2.2c-8.2-4.2-19.6,2.3-19,12.6c0.9,14.4,0.1,29,0.3,43.4c0.1,3.9-1,5.1-4.9,5
		c-8.3-0.3-8.3,0-8.3-8.5c0-19.6,0-39.3,0.1-58.9c0-2.1-1.5-5.2,1.3-6.2c3.3-1.2,7.3-0.1,9,2.7c2.6,4.1,3.8,2.8,6.6,0.4
		c7.2-6.2,15.1-5.8,23.2-1.6C1000,94,1000,97,1000,100z"/>
	<path class="st0" d="M65,213c-1.9-2.3-4.8-2.8-7.2-4c-13.1-6.2-26.2-12.3-39.2-18.5c-1.3-0.6-3.2-0.9-3-2.8c0.1-1.5,1.9-1.7,3-2.3
		c4.4-2.1,8.7-4.1,13.1-6.1c1.7-0.8,3.4-1.6,5.3-0.9c1.9,0.6,4.3,1.2,4.7,3.3c0.4,2.3-2.3,2.4-3.7,3.3c-1.4,1-4.1,0.9-4,3.1
		c0.1,1.8,2.4,2,3.8,2.7c9.1,4.4,18.4,8.6,27.5,13c3.2,1.6,6.3,1.7,9.5,0.1c9.6-4.6,19.2-9.1,28.9-13.6c1.2-0.5,3-0.7,3-2.2
		c0-1.8-2.1-1.8-3.2-2.6c-0.1-0.1-0.3-0.1-0.4-0.2c-1.7-1.2-5.6-1.2-4.4-4.1c1.2-2.7,4.7-3.9,7.8-2.7c4.3,1.6,8.6,3.7,12.7,5.8
		c2,1,5.4,1.2,5.5,3.6c0.1,2.6-3.3,2.8-5.3,3.7c-13.3,6.4-26.8,12.6-40.2,18.9c-1.4,0.7-3.2,0.9-4.1,2.5C71.7,213,68.3,213,65,213z"
		/>
	<path class="st0" d="M573.9,56.8c8.4,0,15.9,1.3,22.8,4.9c2,1,4,2.5,5.6,4.1c2.9,3,2.2,6.7-1.1,10.6c-3,3.6-4.5,0.1-6.5-1.1
		c-8.2-5.1-16.9-7.7-26.6-5.6c-7.3,1.6-11.3,5.5-12.2,11.4c-1.2,7.7,1.1,12.6,8.4,16.3c4.1,2.1,8.6,3.5,12.9,5.2
		c3.2,1.3,6.6,2.3,9.8,3.7c13.7,6,20.4,17.4,18.6,31.4c-2,15.1-11.3,24.8-26.4,27c-11.9,1.7-23.6,0.8-34.4-5
		c-6.5-3.5-7.2-7.2-3.3-13.5c1.7-2.7,3-2.7,5.5-1c8.3,5.9,17.4,8.7,27.7,7.8c8.7-0.8,15.1-5.9,16.5-13.4c1.8-9.4-1.7-16.7-10-20.7
		c-3.3-1.6-6.8-2.7-10.2-3.9c-3.6-1.3-7.3-2.4-10.8-3.8c-14.3-5.9-20.7-16.4-18.6-29.9c2.2-13.9,12.2-22.8,27.1-24.2
		C570.5,56.9,572.5,56.9,573.9,56.8z"/>
	<path class="st0" d="M223.1,148.4c3.3-9.7,6.1-18.1,8.9-26.6c6-18,12-35.9,18-53.9c2.4-7.2,6.4-10.2,12.6-9.7
		c3.6,0.3,4.8,1.3,3.4,5.2c-9.2,25.3-18.2,50.7-27.3,76c-2.5,7-5.2,14-7.5,21.1c-0.9,2.7-2.2,3.5-5,3.5c-10.8,0-10.7,0.1-14.3-10.1
		c-10.5-30.1-20.9-60.3-31.5-90.4c-1.4-4-0.5-5,3.4-5.4c7-0.6,10.9,1.9,13.3,9.3c7.9,24.9,15.8,49.7,23.7,74.6
		C221.4,143.8,222,145.4,223.1,148.4z"/>
	<path class="st0" d="M722.5,156.1c-8.3,7.4-17.6,9.5-28.1,8c-7.9-1.1-14-4.8-16.7-12.4c-2.9-8.1-2.6-16.2,3.2-23.1
		c7.8-9.3,18.8-11.3,30-12.5c1.2-0.1,2.4,0.1,3.5-0.2c2.7-0.8,6.8,2.3,8.1-1.9c1.4-4.5-2.3-11.3-6.7-12.8c-7.2-2.5-14.4-2-21.5,0.5
		c-1.9,0.7-3.6,1.7-5.4,2.5c-2,0.9-4.3,3.8-6.2,0.2c-1.7-3.2-3.7-6.8,0.2-9.9c1.4-1.1,3.1-2,4.7-2.7c9.3-3.7,19-4.8,28.9-3.1
		c12.9,2.2,18.9,9,19.3,22.1c0.3,11.8,0.1,23.7,0.2,35.5c0,4.6-0.6,9.7,6.3,10.3c2.1,0.2,1.1,2.4,1.3,3.8c0.2,1.7-0.4,2.7-2.2,3.3
		C734.5,166,726.7,163.2,722.5,156.1z M722.8,136.5c0-2.6-0.2-4.1,0-5.6c0.7-4.2-1.3-5.3-5.1-4.8c-4,0.5-8,0.5-11.9,1.2
		c-4.8,0.8-9.4,2.4-12.9,6.1c-5.3,5.6-4,16.3,2.7,18.8c7.5,2.8,14.7,1,21.5-2.9C722.9,146,723.5,141,722.8,136.5z"/>
	<path class="st0" d="M927.4,129c-6.8,0-13.7,0.1-20.5-0.1c-3-0.1-4,0.4-3.5,3.9c3.1,19.9,22.6,27.8,39.1,15.9c1.4-1,2.3-5,5.2-2.2
		c3.9,3.8,4.3,8.4,1.1,11.5c-4,3.8-9,5.6-14.3,6.7c-6.4,1.3-12.9,1.3-19.3-0.1c-11.7-2.5-19.8-9.2-23.5-20.7
		c-4-12.2-4.4-24.6,0.8-36.6c6.3-14.7,21.1-21.9,36.9-18.7c14.3,2.9,22.5,13.5,23.2,30.1C953,129,953,129,942.9,129
		C937.7,129,932.6,129,927.4,129z M920.8,118.8c5,0,10,0,15,0c1.8,0,3.1,0,3.3-2.5c0.4-7.3-4.8-14.7-11.9-16.5
		c-11.4-2.8-20.8,3.3-23.5,14.9c-0.7,3.1-0.3,4.3,3.1,4.1C911.5,118.7,916.1,118.8,920.8,118.8z"/>
	<path class="st0" d="M294.6,129c-6.5,0-13,0.3-19.5-0.1c-4.2-0.2-4.6,1.4-4.2,4.9c2.4,18.6,23.2,26.5,39,14.9c1.4-1,2.2-5.1,5.2-2
		c3.6,3.7,4.1,8.2,1.3,11.1c-3.1,3.3-7.1,4.9-11.3,6.1c-8.7,2.4-17.5,2.4-26.1-0.2c-12.9-3.9-19.5-13.5-21.8-26.2
		c-1.9-10.4-1.7-20.9,2.8-30.8c7.3-16,27-23.4,43.1-16.2c11.4,5.1,15.7,14.8,16.6,26.4c0.9,12.1,0.7,12.1-11.3,12.1
		C304,129,299.3,129,294.6,129z M288.5,118.8c5,0,10-0.1,14.9,0c2.4,0,3.1-0.7,2.9-3.2c-0.7-10.1-6.8-16.4-16.4-16.5
		c-9.8-0.1-18,6.9-19,16.2c-0.3,2.6,0.3,3.6,3.1,3.6C278.9,118.7,283.7,118.8,288.5,118.8z"/>
	<path class="st0" d="M510,129c-6.7,0-13.3,0.2-20-0.1c-3.9-0.2-4.4,1.4-3.9,4.7c2.6,18.8,23.3,26.9,38.8,15.3
		c1.5-1.1,2.5-4.7,5.3-2.3c3.6,3.1,4.2,8.2,1.6,11.1c-0.5,0.6-1.2,1.1-1.9,1.6c-13,9.8-37.8,7.9-48.9-3.9
		c-4.6-4.9-7.2-10.8-8.3-17.3c-2-11.7-2-23.2,3.9-34c7-12.8,21.9-18.9,37.4-15.2c12.4,2.9,20.3,13.6,21,28.2
		c0.5,11.8,0.5,11.8-11.1,11.8C519.3,129,514.6,129,510,129z M503.7,118.8c4.8,0,9.7-0.1,14.5,0c2.8,0.1,3.8-0.6,3.4-3.7
		c-1.4-10.6-7-16.1-16.8-16.1c-9.4,0-17.3,7-18.6,16.2c-0.4,2.6,0.4,3.6,3.1,3.5C494,118.7,498.9,118.8,503.7,118.8z"/>
	<path class="st0" d="M446.2,157.2c-9.2,7.8-18.8,9.2-29.1,7.9c-10.2-1.3-17.2-8.4-18.1-18.8c-1.3-15.5-0.3-31-0.6-46.5
		c0-1.3-0.3-2.7,0.1-4c0.6-2.4-2.1-6,2.4-6.9c4.3-0.9,8.8,1.5,10.4,5.2c0.9,2.1,0.8,4.2,0.8,6.4c0,12,0.4,24-0.1,36
		c-0.7,16.1,9.1,19.2,21.2,16.5c9-2,13.9-5.8,13.4-16.5c-0.6-14.1,0.1-28.3-0.3-42.5c-0.1-4.9,1.9-5.7,5.9-5c4.8,0.9,7.7,3.8,7.7,9
		c0.1,20.7,0,41.3,0.1,62c0,2.4-0.8,3.3-3.2,3.2c-1.7-0.1-3.4-0.2-5,0C447.8,163.8,445.7,162.5,446.2,157.2z"/>
	<path class="st0" d="M748,126.5c0-10.2-0.1-20.3,0.1-30.5c0-2.2-1.7-5.5,1.5-6.6c3.1-1,7.1-0.1,8.6,2.5c2.7,4.8,4.9,3.2,8.2,1
		c7.9-5.1,16.8-6.1,25.9-4.2c9.2,1.9,15.2,8.3,16.7,17.6c1.7,10.9,0.6,21.9,0.8,32.9c0.2,6.7-0.1,13.3,0.1,20c0.1,3.1-1,3.9-4,4
		c-9.8,0.1-9.8,0.2-9.8-9.6c0-12.7-0.1-25.3,0-38c0.1-11.7-5.5-16-17.6-15.3c-2.6,0.2-5.3,0.7-7.8,1.6c-6.9,2.4-9.2,5.7-9.2,12.9
		c0,14.5-0.1,29,0.1,43.5c0,3.6-0.8,4.9-4.7,4.9c-9.1-0.2-9.1,0-9.1-9.3C748,144.8,748,135.7,748,126.5z"/>
	<path class="st0" d="M820.8,126.2c0-10.5,0-21,0-31.5c0-5.8,1.4-6.7,6.7-4.8c1.2,0.4,3,0.9,3.4,1.9c2.7,6.1,5.7,2.6,9,0.7
		c8.7-5,18-5.8,27.5-3.3c8.1,2.2,13.8,9.4,14.5,18.4c1.5,17.4,0.3,34.9,0.7,52.4c0.1,2.4-0.9,3-3.2,3.2c-10.5,0.6-10.5,0.7-10.5-9.8
		c0-12.6,0-25.3,0-37.9c0-10.1-3.4-14-13.3-15.1c-5-0.6-10,0.3-14.5,2.6c-4.7,2.3-7.2,6-7.1,11.5c0.2,14.6,0,29.3,0.1,43.9
		c0,3.6-0.7,4.9-4.6,4.8c-8.8-0.2-8.8,0-8.8-8.6C820.8,145.2,820.8,135.7,820.8,126.2z"/>
	<path class="st0" d="M327.8,125.8c0-10.2,0-20.3,0-30.5c0-6.5,2.1-7.8,8-4.9c0.6,0.3,1.5,0.5,1.7,1c3,6.3,6.3,2.8,10,0.7
		c8.5-4.7,17.8-5.5,27.1-2.8c8.5,2.5,13.3,9,14.2,17.6c1.8,17.8,0.4,35.6,0.8,53.4c0,2.2-0.9,3-3,2.8c-0.2,0-0.3,0-0.5,0
		c-10.1,0.5-10.1,0.5-10.1-9.6c0-12.7,0-25.3,0-38c0-10.3-3.5-14.4-13.6-15.3c-5-0.5-10,0.4-14.5,2.8c-4.5,2.3-6.8,5.9-6.8,11.2
		c0.2,14.8,0,29.6,0.1,44.5c0,3.5-1,4.5-4.5,4.4c-8.9-0.1-8.9,0.1-8.9-8.9C327.8,144.8,327.8,135.3,327.8,125.8z"/>
	<path class="st0" d="M612.1,127.1C611.5,94,639.8,83,660.9,90c2.7,0.9,5.3,2.1,7.5,3.9c4.6,3.7,4.9,8.6,1,13
		c-1.9,2.1-3.1,0.8-4.5-0.5c-4.4-4.2-9.3-6.7-15.6-6.7c-12.3,0.1-19.7,5.9-22.1,18c-1.2,5.9-1.1,11.9,0.1,17.8
		c3.6,17.4,21.7,23.9,35.9,13.1c1.4-1.1,2.4-5.4,5.7-1.8c3.6,4,4.3,7.5,1.6,10.6c-0.9,1-1.9,1.8-3,2.6
		c-17.5,12.3-44.7,4.3-52.5-15.4C612.8,139.1,612.2,133.2,612.1,127.1z"/>
	<path class="st0" d="M44.7,99.1c0-10.7,6.3-19.9,16.2-23.5c9.9-3.6,20.4-0.6,27.3,7.9c6.4,7.9,7.5,19.8,1.9,28.5
		c-5,7.7-10.6,14.9-16.2,22.2c-2.8,3.6-7.1,3.6-9.8,0c-5.6-7.4-11-15-16.3-22.7C45.3,107.9,44.6,103.5,44.7,99.1z"/>
</g>
</svg>
